<svg xmlns="http://www.w3.org/2000/svg" viewBox="0 18.5 39.7 6.1">
<path fill="#FFFFFF" d="M39.2 24.6v-2.9h-2.5v2.9h-0.5v-6.1h0.5V19v2.2h2.5v-2.7h0.5v6.1H39.2z M32.7 24.2c0.7 0 1.1 0 1.1 0 s0.5-0.1 0.7-0.5l0.4 0.2c0 0-0.3 0.7-1.1 0.7c-0.7 0-1.3 0-1.3 0s-1.1 0-1.1-1.1c0-1.1 0-3.8 0-3.8s-0.1-1.3 1.3-1.3 c1.2 0 1.3 0 1.3 0s0.9 0 0.9 0.7l-0.4 0.2c0 0-0.2-0.5-0.7-0.5s-0.9 0-0.9 0s-0.9 0-0.9 0.9s0 3.8 0 3.8S32 24.2 32.7 24.2z M27.3 24.6v-6.1h3.2V19h-2.7v2.2h2.3v0.5h-2.3V24h2.7v0.5h-2.7H27.3z M25 24.6h-0.5V19H23v-0.5h3.4V19H25V24.6z M21.9 24.6 l-0.4-1.3h-1.6l-0.4 1.3h-1.4l1.8-6.1h1.6l1.8 6.1H21.9z M20.8 19.7h-0.2l-0.5 2.7h1.3L20.8 19.7z M16.5 19.9l-1.1 4.7h-1.3 l-1.1-4.5v4.5h-1.3v-6.1h1.3h0.7l0.9 4.1h0.2l0.9-4.1h2v6.1h-1.3V19.9z M9.5 18.5H11v6.1H9.5V18.5z M5.1 24.6l2.2-2.9l-0.2-0.1 c0.3-0.4 0.5-0.8 0.5-1.3l0.9 2.2v0.7l-1.1 1.4H5.1z M5.8 22c-1 0-1.8-0.8-1.8-1.8c0-1 0.8-1.8 1.8-1.8s1.8 0.8 1.8 1.8 C7.5 21.2 6.7 22 5.8 22z M5.1 22.1l-2 2.5H0l3.6-4.7l0.2 0c0 0.1 0 0.2 0 0.3C3.8 21.1 4.3 21.8 5.1 22.1z M5.8 22.2 c0.3 0 0.6-0.1 0.8-0.2l-2 2.5H3.5l2-2.4C5.6 22.2 5.7 22.2 5.8 22.2z"/>
</svg>
